# xmcd CD database file
#
# Track frame offsets:
#	150
#	13575
#	25852
#	40347
#	52820
#	65752
#	80450
#	92000
#	105077
#	117762
#	132780
#	146065
#	156952
#	171300
#
# Disc length: 2468 seconds
#
# Revision: 3
# Processed by: cddbd v1.5.2PL0 Copyright (c) Steve Scherf et al.
# Submitted via: CDex 1.70beta2
#
DISCID=af09a20e
DTITLE=Roy Smeck - Plays Hawaiian Guitar, Banjo, Ukulele and Guitar, 1926-1949
DYEAR=1992
DGENRE=South Sea
TTITLE0=12th Street Rag - [1931]
TTITLE1=Frettin' Blues - [1932]
TTITLE2=Shuffle Off to Buffalo - [1933]
TTITLE3=Limehouse Blues - [1937]
TTITLE4=Nifty Pickin' - [1932]
TTITLE5=Tough Pickin' - [1926]
TTITLE6=Slippery Fingers - [1937]
TTITLE7=Steel Guitar Rag - [late 1930s]
TTITLE8=Tiger Rag - [1932]
TTITLE9=Guitarese - [1937]
TTITLE10=Farewell Blues - [1931]
TTITLE11=Ukulele Bounce - [1949]
TTITLE12=Bugle Call Rag - [1937]
TTITLE13=Laughing Rag - [1928]
EXTD=Roy Smeck [Ray Smeck] (1900-02-06/1994-04-05): Hawaiian guitar, banjo, ukulele, guitar\nCD: Yazoo 1052 (1992-09-15), UPC 016351015228. YEAR: 1992
EXTT0=
EXTT1=
EXTT2=Vocalist is prob. Harlan Lattimore (1908-11-25/1980-07).
EXTT3=
EXTT4=
EXTT5=
EXTT6=
EXTT7=
EXTT8=
EXTT9=
EXTT10=
EXTT11=
EXTT12=
EXTT13=
PLAYORDER=
